<svg width="1008" height="1008" viewBox="0 0 1008 1008" fill="none" xmlns="http://www.w3.org/2000/svg">
<g filter="url(#filter0_d_9_234)">
<rect x="4" width="1000" height="1000" rx="100" fill="#0D0D0D"/>
</g>
<path d="M757.485 748V712C771.152 712 781.985 709.5 789.985 704.5C797.985 699.5 801.985 689.333 801.985 674V559.5C801.985 542.5 806.485 529.167 815.485 519.5C824.485 509.833 837.652 503.333 854.985 500V497.5C819.652 490.167 801.985 470.167 801.985 437.5V322.5C801.985 307.167 797.985 297.167 789.985 292.5C781.985 287.5 771.152 285 757.485 285V249C782.152 249.333 802.485 255 818.485 266C834.485 276.667 842.485 294.5 842.485 319.5V435C842.485 451.333 847.652 463 857.985 470C868.652 476.667 883.985 480 903.985 480V517C883.985 517 868.652 520.5 857.985 527.5C847.652 534.167 842.485 545.667 842.485 562V677.5C842.485 702.5 834.485 720.333 818.485 731C802.485 741.667 782.152 747.333 757.485 748Z" fill="#D9D9D9"/>
<path d="M250.5 748.007C226.167 747.341 205.833 741.674 189.5 731.007C173.5 720.341 165.5 702.507 165.5 677.507V562.007C165.5 545.674 160.167 534.174 149.5 527.507C139.167 520.507 124 517.007 104 517.007V480.007C124 480.007 139.167 476.674 149.5 470.007C160.167 463.007 165.5 451.341 165.5 435.007V319.507C165.5 294.507 173.5 276.674 189.5 266.007C205.833 255.007 226.167 249.341 250.5 249.007V285.007C236.833 285.007 226 287.507 218 292.507C210 297.174 206 307.174 206 322.507V437.507C206 470.174 188.333 490.174 153 497.507V500.007C170.333 503.341 183.5 509.841 192.5 519.507C201.5 529.174 206 542.507 206 559.507V674.007C206 689.341 210 699.507 218 704.507C226 709.507 236.833 712.007 250.5 712.007V748.007Z" fill="#D9D9D9"/>
<mask id="mask0_9_234" style="mask-type:alpha" maskUnits="userSpaceOnUse" x="280" y="352" width="449" height="296">
<g clip-path="url(#clip0_9_234)">
<mask id="mask1_9_234" style="mask-type:alpha" maskUnits="userSpaceOnUse" x="280" y="352" width="274" height="293">
<path d="M290.435 644.005C287.374 644.005 284.87 643.032 282.922 641.085C280.974 639.138 280 636.774 280 633.993V362.429C280 359.37 280.974 356.867 282.922 354.92C284.87 352.973 287.374 352 290.435 352H323.409C327.304 352 330.226 353.112 332.174 355.337C334.122 357.284 335.374 358.813 335.93 359.926L416.487 510.1L497.878 359.926C498.435 358.813 499.687 357.284 501.635 355.337C503.583 353.112 506.505 352 510.4 352H542.957C546.018 352 548.522 352.973 550.47 354.92C552.418 356.867 553.392 359.37 553.392 362.429V633.993C553.392 636.774 552.418 639.138 550.47 641.085C548.522 643.032 546.018 644.005 542.957 644.005H507.896C504.835 644.005 502.331 643.032 500.383 641.085C498.713 639.138 497.878 636.774 497.878 633.993V453.367L439.444 564.747C438.052 567.249 436.244 569.474 434.018 571.421C431.791 573.09 428.87 573.924 425.252 573.924H408.139C404.244 573.924 401.183 573.09 398.957 571.421C397.009 569.474 395.339 567.249 393.948 564.747L335.513 453.367V633.993C335.513 636.774 334.539 639.138 332.591 641.085C330.644 643.032 328.278 644.005 325.496 644.005H290.435Z" fill="#0D0D0D"/>
</mask>
<g mask="url(#mask1_9_234)">
<path d="M645.218 786.705H180V239.196H645.218V786.705ZM180 274.072L391.642 678.34L441.723 652.153L230.081 247.886L180 274.072Z" fill="#D9D9D9"/>
</g>
</g>
<g clip-path="url(#clip1_9_234)">
<mask id="mask2_9_234" style="mask-type:alpha" maskUnits="userSpaceOnUse" x="498" y="352" width="231" height="292">
<path d="M508.717 643.675C505.936 643.675 503.573 642.702 501.626 640.758C499.679 638.813 498.706 636.452 498.706 633.674V362.417C498.706 359.361 499.679 356.861 501.626 354.917C503.573 352.972 505.936 352 508.717 352H620.51C642.201 352 661.111 355.472 677.24 362.417C693.37 369.084 705.884 379.362 714.783 393.251C723.682 406.863 728.131 423.946 728.131 444.503C728.131 465.336 723.682 482.559 714.783 496.171C705.884 509.504 693.37 519.505 677.24 526.171C661.111 532.838 642.201 536.172 620.51 536.172H558.356V633.674C558.356 636.452 557.383 638.813 555.437 640.758C553.768 642.702 551.404 643.675 548.345 643.675H508.717ZM557.522 489.92H618.424C634.553 489.92 646.928 486.17 655.549 478.67C664.17 470.892 668.48 459.503 668.48 444.503C668.48 430.613 664.448 419.502 656.384 411.168C648.319 402.557 635.666 398.251 618.424 398.251H557.522V489.92Z" fill="#0D0D0D"/>
</mask>
<g mask="url(#mask2_9_234)">
<path d="M893.03 786.213H310.777V239.323H893.03V786.213ZM371.61 398.312V489.896H601.904V398.312H371.61Z" fill="#D9D9D9"/>
</g>
</g>
</mask>
<g mask="url(#mask0_9_234)">
<path d="M751.386 711.909H256.643V287.238H751.386V711.909ZM528.974 398.289C526.901 398.289 525.122 399.551 524.364 401.348C524.345 401.377 524.327 401.408 524.311 401.44L439.71 565.491C439.475 565.948 439.626 566.502 440.043 566.781L432.773 580.868C432.52 581.359 432.712 581.963 433.203 582.216L480.908 606.838C481.398 607.091 482.001 606.899 482.254 606.408L541.144 492.31L542.023 491.162L543.183 490.312L545.276 489.912H596.38V398.289H528.974Z" fill="#D9D9D9"/>
</g>
<defs>
<filter id="filter0_d_9_234" x="0" y="0" width="1008" height="1008" filterUnits="userSpaceOnUse" color-interpolation-filters="sRGB">
<feFlood flood-opacity="0" result="BackgroundImageFix"/>
<feColorMatrix in="SourceAlpha" type="matrix" values="0 0 0 0 0 0 0 0 0 0 0 0 0 0 0 0 0 0 127 0" result="hardAlpha"/>
<feOffset dy="4"/>
<feGaussianBlur stdDeviation="2"/>
<feComposite in2="hardAlpha" operator="out"/>
<feColorMatrix type="matrix" values="0 0 0 0 0 0 0 0 0 0 0 0 0 0 0 0 0 0 0.25 0"/>
<feBlend mode="normal" in2="BackgroundImageFix" result="effect1_dropShadow_9_234"/>
<feBlend mode="normal" in="SourceGraphic" in2="effect1_dropShadow_9_234" result="shape"/>
</filter>
<clipPath id="clip0_9_234">
<rect width="273.913" height="295.481" fill="white" transform="translate(280 352)"/>
</clipPath>
<clipPath id="clip1_9_234">
<rect width="230.294" height="295.147" fill="white" transform="translate(498.706 352)"/>
</clipPath>
</defs>
</svg>
