<svg width="800" height="499" viewBox="0 0 800 499" fill="none" xmlns="http://www.w3.org/2000/svg">
<path d="M653.485 499V463C667.152 463 677.985 460.5 685.985 455.5C693.985 450.5 697.985 440.333 697.985 425V310.5C697.985 293.5 702.485 280.167 711.485 270.5C720.485 260.833 733.652 254.333 750.985 251V248.5C715.652 241.167 697.985 221.167 697.985 188.5V73.5C697.985 58.1667 693.985 48.1667 685.985 43.5C677.985 38.5 667.152 36 653.485 36V-9.53674e-07C678.152 0.333328 698.485 5.99999 714.485 17C730.485 27.6667 738.485 45.5 738.485 70.5V186C738.485 202.333 743.652 214 753.985 221C764.652 227.667 779.985 231 799.985 231V268C779.985 268 764.652 271.5 753.985 278.5C743.652 285.167 738.485 296.667 738.485 313V428.5C738.485 453.5 730.485 471.333 714.485 482C698.485 492.667 678.152 498.333 653.485 499Z" fill="#0D0D0D"/>
<path d="M146.5 499.007C122.167 498.341 101.833 492.674 85.5 482.007C69.5 471.341 61.5 453.507 61.5 428.507V313.007C61.5 296.674 56.1667 285.174 45.5 278.507C35.1667 271.507 20 268.007 1.74344e-06 268.007V231.007C20 231.007 35.1667 227.674 45.5 221.007C56.1667 214.007 61.5 202.341 61.5 186.007V70.5073C61.5 45.5073 69.5 27.674 85.5 17.0073C101.833 6.00735 122.167 0.340683 146.5 0.00735378V36.0073C132.833 36.0073 122 38.5073 114 43.5073C106 48.174 102 58.174 102 73.5073V188.507C102 221.174 84.3333 241.174 49 248.507V251.007C66.3333 254.341 79.5 260.841 88.5 270.507C97.5 280.174 102 293.507 102 310.507V425.007C102 440.341 106 450.507 114 455.507C122 460.507 132.833 463.007 146.5 463.007V499.007Z" fill="#0D0D0D"/>
<mask id="mask0_9_234" style="mask-type:alpha" maskUnits="userSpaceOnUse" x="176" y="103" width="449" height="296">
<g clip-path="url(#clip0_9_234)">
<mask id="mask1_9_234" style="mask-type:alpha" maskUnits="userSpaceOnUse" x="176" y="103" width="274" height="293">
<path d="M186.435 395.005C183.374 395.005 180.87 394.032 178.922 392.085C176.974 390.138 176 387.774 176 384.993V113.429C176 110.37 176.974 107.867 178.922 105.92C180.87 103.973 183.374 103 186.435 103H219.409C223.304 103 226.226 104.112 228.174 106.337C230.122 108.284 231.374 109.813 231.93 110.926L312.487 261.1L393.878 110.926C394.435 109.813 395.687 108.284 397.635 106.337C399.583 104.112 402.505 103 406.4 103H438.957C442.018 103 444.522 103.973 446.47 105.92C448.418 107.867 449.392 110.37 449.392 113.429V384.993C449.392 387.774 448.418 390.138 446.47 392.085C444.522 394.032 442.018 395.005 438.957 395.005H403.896C400.835 395.005 398.331 394.032 396.383 392.085C394.713 390.138 393.878 387.774 393.878 384.993V204.367L335.444 315.747C334.052 318.249 332.244 320.474 330.018 322.421C327.791 324.09 324.87 324.924 321.252 324.924H304.139C300.244 324.924 297.183 324.09 294.957 322.421C293.009 320.474 291.339 318.249 289.948 315.747L231.513 204.367V384.993C231.513 387.774 230.539 390.138 228.591 392.085C226.644 394.032 224.278 395.005 221.496 395.005H186.435Z" fill="#0D0D0D"/>
</mask>
<g mask="url(#mask1_9_234)">
<path d="M541.218 537.705H75.9999V-9.80433H541.218V537.705ZM75.9999 25.0725L287.642 429.34L337.723 403.153L126.081 -1.1137L75.9999 25.0725Z" fill="#D9D9D9"/>
</g>
</g>
<g clip-path="url(#clip1_9_234)">
<mask id="mask2_9_234" style="mask-type:alpha" maskUnits="userSpaceOnUse" x="394" y="103" width="231" height="292">
<path d="M404.717 394.675C401.936 394.675 399.573 393.702 397.626 391.758C395.679 389.813 394.706 387.452 394.706 384.674V113.417C394.706 110.361 395.679 107.861 397.626 105.917C399.573 103.972 401.936 103 404.717 103H516.51C538.201 103 557.111 106.472 573.24 113.417C589.37 120.084 601.884 130.362 610.783 144.251C619.682 157.863 624.131 174.946 624.131 195.503C624.131 216.336 619.682 233.559 610.783 247.171C601.884 260.504 589.37 270.505 573.24 277.171C557.111 283.838 538.201 287.172 516.51 287.172H454.356V384.674C454.356 387.452 453.383 389.813 451.437 391.758C449.768 393.702 447.404 394.675 444.345 394.675H404.717ZM453.522 240.92H514.424C530.553 240.92 542.928 237.17 551.549 229.67C560.17 221.892 564.48 210.503 564.48 195.503C564.48 181.613 560.448 170.502 552.384 162.168C544.319 153.557 531.666 149.251 514.424 149.251H453.522V240.92Z" fill="#0D0D0D"/>
</mask>
<g mask="url(#mask2_9_234)">
<path d="M789.03 537.213H206.777V-9.67668H789.03V537.213ZM267.61 149.312V240.896H497.904V149.312H267.61Z" fill="#D9D9D9"/>
</g>
</g>
</mask>
<g mask="url(#mask0_9_234)">
<path d="M647.386 462.909H152.643V38.2375H647.386V462.909ZM424.974 149.289C422.901 149.289 421.122 150.551 420.364 152.348C420.345 152.377 420.327 152.408 420.311 152.44L335.71 316.491C335.475 316.948 335.626 317.502 336.043 317.781L328.773 331.868C328.52 332.359 328.712 332.963 329.203 333.216L376.908 357.838C377.398 358.091 378.001 357.899 378.254 357.408L437.144 243.31L438.023 242.162L439.183 241.312L441.276 240.912H492.38V149.289H424.974Z" fill="#0D0D0D"/>
</g>
<defs>
<clipPath id="clip0_9_234">
<rect width="273.913" height="295.481" fill="white" transform="translate(176 103)"/>
</clipPath>
<clipPath id="clip1_9_234">
<rect width="230.294" height="295.147" fill="white" transform="translate(394.706 103)"/>
</clipPath>
</defs>
</svg>
