<svg width="951" height="70" viewBox="0 0 951 70" fill="none" xmlns="http://www.w3.org/2000/svg">
<mask id="mask0_0_1" style="mask-type:alpha" maskUnits="userSpaceOnUse" x="0" y="0" width="951" height="70">
<path d="M938.773 68.16C938.133 68.16 937.589 67.936 937.141 67.488C936.693 67.04 936.469 66.496 936.469 65.856V3.26404C936.469 2.62404 936.693 2.08002 937.141 1.63202C937.589 1.18402 938.133 0.960022 938.773 0.960022H947.797C948.501 0.960022 949.045 1.18402 949.429 1.63202C949.877 2.08002 950.101 2.62404 950.101 3.26404V65.856C950.101 66.496 949.877 67.04 949.429 67.488C949.045 67.936 948.501 68.16 947.797 68.16H938.773Z" fill="#0D0D0D"/>
<path d="M871.273 68.16C870.633 68.16 870.089 67.936 869.641 67.488C869.193 67.04 868.969 66.496 868.969 65.856V3.36005C868.969 2.65604 869.193 2.08002 869.641 1.63202C870.089 1.18402 870.633 0.960022 871.273 0.960022H894.697C901.161 0.960022 906.473 1.95203 910.633 3.93604C914.857 5.92004 918.025 8.86404 920.137 12.768C922.313 16.672 923.433 21.44 923.497 27.072C923.625 29.888 923.689 32.384 923.689 34.56C923.689 36.736 923.625 39.2 923.497 41.952C923.369 47.904 922.281 52.832 920.233 56.736C918.185 60.576 915.081 63.456 910.921 65.376C906.825 67.232 901.577 68.16 895.177 68.16H871.273ZM882.313 57.12H894.697C898.281 57.12 901.193 56.608 903.433 55.584C905.673 54.56 907.305 52.928 908.329 50.688C909.417 48.384 909.993 45.376 910.057 41.664C910.121 39.744 910.153 38.08 910.153 36.672C910.217 35.2 910.217 33.76 910.153 32.352C910.153 30.88 910.121 29.216 910.057 27.36C909.929 22.112 908.617 18.24 906.121 15.744C903.625 13.248 899.657 12 894.217 12H882.313V57.12Z" fill="#0D0D0D"/>
<path d="M806.679 68.16C806.039 68.16 805.495 67.936 805.047 67.488C804.599 67.04 804.375 66.496 804.375 65.856V3.36005C804.375 2.65604 804.599 2.08002 805.047 1.63202C805.495 1.18402 806.039 0.960022 806.679 0.960022H831.543C839.287 0.960022 845.399 2.75203 849.879 6.33603C854.359 9.92003 856.599 15.136 856.599 21.984C856.599 26.72 855.415 30.656 853.047 33.792C850.743 36.928 847.639 39.2 843.735 40.608L857.751 65.088C857.943 65.472 858.039 65.824 858.039 66.144C858.039 66.72 857.815 67.2 857.367 67.584C856.983 67.968 856.535 68.16 856.023 68.16H847.287C846.199 68.16 845.367 67.872 844.791 67.296C844.215 66.72 843.767 66.144 843.447 65.568L831.063 42.816H817.719V65.856C817.719 66.496 817.495 67.04 817.047 67.488C816.663 67.936 816.119 68.16 815.415 68.16H806.679ZM817.719 31.968H831.255C835.159 31.968 838.071 31.104 839.991 29.376C841.911 27.584 842.871 25.088 842.871 21.888C842.871 18.688 841.911 16.192 839.991 14.4C838.135 12.544 835.223 11.616 831.255 11.616H817.719V31.968Z" fill="#0D0D0D"/>
<path d="M733.684 68.16C733.172 68.16 732.692 67.968 732.244 67.584C731.86 67.2 731.668 66.72 731.668 66.144C731.668 65.888 731.732 65.6 731.86 65.28L754.996 3.36005C755.188 2.72004 755.54 2.17603 756.052 1.72803C756.628 1.21603 757.396 0.960022 758.356 0.960022H768.82C769.78 0.960022 770.516 1.21603 771.028 1.72803C771.54 2.17603 771.924 2.72004 772.18 3.36005L795.316 65.28C795.38 65.6 795.412 65.888 795.412 66.144C795.412 66.72 795.22 67.2 794.836 67.584C794.452 67.968 794.004 68.16 793.492 68.16H785.14C784.244 68.16 783.572 67.968 783.124 67.584C782.74 67.136 782.484 66.72 782.356 66.336L777.844 54.624H749.332L744.82 66.336C744.692 66.72 744.404 67.136 743.956 67.584C743.572 67.968 742.932 68.16 742.036 68.16H733.684ZM752.692 43.584H774.484L763.54 13.92L752.692 43.584Z" fill="#0D0D0D"/>
<path d="M672.241 68.16C671.601 68.16 671.057 67.936 670.609 67.488C670.161 67.04 669.937 66.496 669.937 65.856V3.36005C669.937 2.65604 670.161 2.08002 670.609 1.63202C671.057 1.18402 671.601 0.960022 672.241 0.960022H679.633C680.529 0.960022 681.169 1.18402 681.553 1.63202C682.001 2.01602 682.289 2.30403 682.417 2.49603L710.065 45.504V3.36005C710.065 2.65604 710.257 2.08002 710.641 1.63202C711.089 1.18402 711.665 0.960022 712.369 0.960022H720.433C721.137 0.960022 721.713 1.18402 722.161 1.63202C722.609 2.08002 722.833 2.65604 722.833 3.36005V65.76C722.833 66.464 722.609 67.04 722.161 67.488C721.713 67.936 721.169 68.16 720.529 68.16H713.041C712.145 68.16 711.505 67.936 711.121 67.488C710.737 67.04 710.449 66.752 710.257 66.624L682.705 24.576V65.856C682.705 66.496 682.481 67.04 682.033 67.488C681.585 67.936 681.009 68.16 680.305 68.16H672.241Z" fill="#0D0D0D"/>
<path d="M599.247 68.16C598.735 68.16 598.255 67.968 597.807 67.584C597.423 67.2 597.231 66.72 597.231 66.144C597.231 65.888 597.295 65.6 597.423 65.28L620.559 3.36005C620.751 2.72004 621.103 2.17603 621.615 1.72803C622.191 1.21603 622.959 0.960022 623.919 0.960022H634.383C635.343 0.960022 636.079 1.21603 636.591 1.72803C637.103 2.17603 637.487 2.72004 637.743 3.36005L660.879 65.28C660.943 65.6 660.975 65.888 660.975 66.144C660.975 66.72 660.783 67.2 660.399 67.584C660.015 67.968 659.567 68.16 659.055 68.16H650.703C649.807 68.16 649.135 67.968 648.687 67.584C648.303 67.136 648.047 66.72 647.919 66.336L643.407 54.624H614.895L610.383 66.336C610.255 66.72 609.967 67.136 609.519 67.584C609.135 67.968 608.495 68.16 607.599 68.16H599.247ZM618.255 43.584H640.047L629.103 13.92L618.255 43.584Z" fill="#0D0D0D"/>
<path d="M563.674 69.12C557.786 69.12 552.762 68.096 548.602 66.048C544.506 64 541.306 61.056 539.002 57.216C536.762 53.312 535.546 48.672 535.354 43.296C535.29 40.544 535.258 37.6 535.258 34.464C535.258 31.264 535.29 28.256 535.354 25.44C535.546 20.128 536.762 15.584 539.002 11.808C541.306 8.03201 544.538 5.11999 548.698 3.07199C552.922 1.02399 557.914 0 563.674 0C568.346 0 572.442 0.640015 575.962 1.92001C579.482 3.13602 582.394 4.736 584.698 6.72C587.066 8.64 588.826 10.72 589.978 12.96C591.194 15.2 591.834 17.28 591.898 19.2C591.962 19.776 591.802 20.256 591.418 20.64C591.034 21.024 590.522 21.216 589.882 21.216H579.994C579.354 21.216 578.874 21.088 578.554 20.832C578.234 20.576 577.946 20.192 577.69 19.68C577.178 18.336 576.378 17.024 575.29 15.744C574.202 14.4 572.73 13.28 570.874 12.384C569.018 11.488 566.618 11.04 563.674 11.04C559.322 11.04 555.834 12.192 553.21 14.496C550.65 16.8 549.274 20.608 549.082 25.92C548.89 31.488 548.89 37.12 549.082 42.816C549.274 48.256 550.682 52.16 553.306 54.528C555.994 56.896 559.514 58.08 563.866 58.08C566.746 58.08 569.306 57.568 571.546 56.544C573.85 55.52 575.642 53.92 576.922 51.744C578.266 49.568 578.938 46.784 578.938 43.392V40.416H567.226C566.586 40.416 566.042 40.192 565.594 39.744C565.146 39.296 564.922 38.72 564.922 38.016V32.928C564.922 32.224 565.146 31.648 565.594 31.2C566.042 30.752 566.586 30.528 567.226 30.528H590.17C590.874 30.528 591.418 30.752 591.802 31.2C592.25 31.648 592.474 32.224 592.474 32.928V43.008C592.474 48.384 591.29 53.024 588.922 56.928C586.618 60.832 583.29 63.84 578.938 65.952C574.65 68.064 569.562 69.12 563.674 69.12Z" fill="#0D0D0D"/>
<path d="M468.184 68.16C467.672 68.16 467.192 67.968 466.744 67.584C466.36 67.2 466.168 66.72 466.168 66.144C466.168 65.888 466.232 65.6 466.36 65.28L489.496 3.36005C489.688 2.72004 490.04 2.17603 490.552 1.72803C491.128 1.21603 491.896 0.960022 492.856 0.960022H503.32C504.28 0.960022 505.016 1.21603 505.528 1.72803C506.04 2.17603 506.424 2.72004 506.68 3.36005L529.816 65.28C529.88 65.6 529.912 65.888 529.912 66.144C529.912 66.72 529.72 67.2 529.336 67.584C528.952 67.968 528.504 68.16 527.992 68.16H519.64C518.744 68.16 518.072 67.968 517.624 67.584C517.24 67.136 516.984 66.72 516.856 66.336L512.344 54.624H483.832L479.32 66.336C479.192 66.72 478.904 67.136 478.456 67.584C478.072 67.968 477.432 68.16 476.536 68.16H468.184ZM487.192 43.584H508.984L498.04 13.92L487.192 43.584Z" fill="#0D0D0D"/>
<path d="M415.554 68.16C414.914 68.16 414.37 67.936 413.922 67.488C413.474 67.04 413.25 66.496 413.25 65.856V3.36005C413.25 2.65604 413.474 2.08002 413.922 1.63202C414.37 1.18402 414.914 0.960022 415.554 0.960022H441.282C446.274 0.960022 450.626 1.76004 454.338 3.36005C458.05 4.89605 460.93 7.26402 462.978 10.464C465.026 13.6 466.05 17.536 466.05 22.272C466.05 27.072 465.026 31.04 462.978 34.176C460.93 37.248 458.05 39.552 454.338 41.088C450.626 42.624 446.274 43.392 441.282 43.392H426.978V65.856C426.978 66.496 426.754 67.04 426.306 67.488C425.922 67.936 425.378 68.16 424.674 68.16H415.554ZM426.786 32.736H440.802C444.514 32.736 447.362 31.872 449.346 30.144C451.33 28.352 452.322 25.728 452.322 22.272C452.322 19.072 451.394 16.512 449.538 14.592C447.682 12.608 444.77 11.616 440.802 11.616H426.786V32.736Z" fill="#0D0D0D"/>
<path d="M350.386 69.12C344.69 69.12 339.794 68.192 335.698 66.336C331.602 64.416 328.402 61.504 326.098 57.6C323.794 53.632 322.546 48.704 322.354 42.816C322.29 40.064 322.258 37.344 322.258 34.656C322.258 31.968 322.29 29.216 322.354 26.4C322.546 20.576 323.826 15.712 326.194 11.808C328.562 7.90401 331.794 4.96001 335.89 2.97601C340.05 0.992012 344.882 0 350.386 0C355.89 0 360.722 0.992012 364.882 2.97601C369.042 4.96001 372.306 7.90401 374.674 11.808C377.042 15.712 378.322 20.576 378.514 26.4C378.642 29.216 378.706 31.968 378.706 34.656C378.706 37.344 378.642 40.064 378.514 42.816C378.322 48.704 377.074 53.632 374.77 57.6C372.466 61.504 369.234 64.416 365.074 66.336C360.978 68.192 356.082 69.12 350.386 69.12ZM350.386 58.08C354.546 58.08 357.938 56.864 360.562 54.432C363.186 51.936 364.594 47.904 364.786 42.336C364.914 39.52 364.978 36.928 364.978 34.56C364.978 32.128 364.914 29.536 364.786 26.784C364.658 23.072 363.954 20.064 362.674 17.76C361.458 15.392 359.794 13.696 357.682 12.672C355.57 11.584 353.138 11.04 350.386 11.04C347.698 11.04 345.298 11.584 343.186 12.672C341.074 13.696 339.378 15.392 338.098 17.76C336.882 20.064 336.21 23.072 336.082 26.784C336.018 29.536 335.986 32.128 335.986 34.56C335.986 36.928 336.018 39.52 336.082 42.336C336.274 47.904 337.682 51.936 340.306 54.432C342.93 56.864 346.29 58.08 350.386 58.08Z" fill="#0D0D0D"/>
<path d="M267.71 68.16C267.07 68.16 266.526 67.936 266.078 67.488C265.63 67.04 265.406 66.496 265.406 65.856V3.36005C265.406 2.65604 265.63 2.08002 266.078 1.63202C266.526 1.18402 267.07 0.960022 267.71 0.960022H309.95C310.654 0.960022 311.23 1.18402 311.678 1.63202C312.126 2.08002 312.35 2.65604 312.35 3.36005V9.69604C312.35 10.336 312.126 10.88 311.678 11.328C311.23 11.776 310.654 12 309.95 12H278.366V28.992H307.838C308.542 28.992 309.118 29.216 309.566 29.664C310.014 30.048 310.238 30.592 310.238 31.296V37.248C310.238 37.952 310.014 38.528 309.566 38.976C309.118 39.36 308.542 39.552 307.838 39.552H278.366V57.12H310.718C311.422 57.12 311.998 57.344 312.446 57.792C312.894 58.24 313.118 58.816 313.118 59.52V65.856C313.118 66.496 312.894 67.04 312.446 67.488C311.998 67.936 311.422 68.16 310.718 68.16H267.71Z" fill="#0D0D0D"/>
<path d="M197.773 68.16C197.133 68.16 196.589 67.968 196.141 67.584C195.693 67.136 195.469 66.5601 195.469 65.856V3.36005C195.469 2.65604 195.693 2.08002 196.141 1.63202C196.589 1.18402 197.133 0.960022 197.773 0.960022H206.509C207.213 0.960022 207.757 1.18402 208.141 1.63202C208.589 2.08002 208.813 2.65604 208.813 3.36005V28.128H237.133V3.36005C237.133 2.65604 237.357 2.08002 237.805 1.63202C238.253 1.18402 238.797 0.960022 239.437 0.960022H248.077C248.781 0.960022 249.357 1.18402 249.805 1.63202C250.253 2.08002 250.477 2.65604 250.477 3.36005V65.856C250.477 66.496 250.253 67.04 249.805 67.488C249.357 67.936 248.781 68.16 248.077 68.16H239.437C238.797 68.16 238.253 67.936 237.805 67.488C237.357 67.04 237.133 66.496 237.133 65.856V40.128H208.813V65.856C208.813 66.496 208.589 67.04 208.141 67.488C207.757 67.936 207.213 68.16 206.509 68.16H197.773Z" fill="#0D0D0D"/>
<path d="M154.432 68.16C153.792 68.16 153.248 67.936 152.8 67.488C152.352 67.04 152.128 66.496 152.128 65.856V12.768H134.368C133.728 12.768 133.184 12.544 132.736 12.096C132.288 11.648 132.064 11.104 132.064 10.464V3.36005C132.064 2.65604 132.288 2.08002 132.736 1.63202C133.184 1.18402 133.728 0.960022 134.368 0.960022H183.328C184.032 0.960022 184.608 1.18402 185.056 1.63202C185.504 2.08002 185.728 2.65604 185.728 3.36005V10.464C185.728 11.104 185.504 11.648 185.056 12.096C184.608 12.544 184.032 12.768 183.328 12.768H165.664V65.856C165.664 66.496 165.44 67.04 164.992 67.488C164.544 67.936 163.968 68.16 163.264 68.16H154.432Z" fill="#0D0D0D"/>
<path d="M73.6845 68.16C73.1725 68.16 72.6925 67.968 72.2445 67.584C71.8605 67.2 71.6685 66.72 71.6685 66.144C71.6685 65.888 71.7325 65.6 71.8605 65.28L94.9965 3.36005C95.1885 2.72004 95.5405 2.17603 96.0525 1.72803C96.6285 1.21603 97.3965 0.960022 98.3565 0.960022H108.82C109.78 0.960022 110.516 1.21603 111.028 1.72803C111.54 2.17603 111.924 2.72004 112.18 3.36005L135.316 65.28C135.38 65.6 135.412 65.888 135.412 66.144C135.412 66.72 135.22 67.2 134.836 67.584C134.452 67.968 134.004 68.16 133.492 68.16H125.14C124.244 68.16 123.572 67.968 123.124 67.584C122.74 67.136 122.484 66.72 122.356 66.336L117.844 54.624H89.3325L84.8205 66.336C84.6925 66.72 84.4045 67.136 83.9565 67.584C83.5725 67.968 82.9325 68.16 82.0365 68.16H73.6845ZM92.6925 43.584H114.484L103.54 13.92L92.6925 43.584Z" fill="#0D0D0D"/>
<path d="M2.4 68.16C1.696 68.16 1.12001 67.936 0.672005 67.488C0.224005 67.04 0 66.496 0 65.856V3.36005C0 2.65604 0.224005 2.08002 0.672005 1.63202C1.12001 1.18402 1.696 0.960022 2.4 0.960022H9.984C10.88 0.960022 11.552 1.21603 12 1.72803C12.448 2.17603 12.736 2.52803 12.864 2.78403L31.392 37.344L50.112 2.78403C50.24 2.52803 50.528 2.17603 50.976 1.72803C51.424 1.21603 52.096 0.960022 52.992 0.960022H60.48C61.184 0.960022 61.76 1.18402 62.208 1.63202C62.656 2.08002 62.88 2.65604 62.88 3.36005V65.856C62.88 66.496 62.656 67.04 62.208 67.488C61.76 67.936 61.184 68.16 60.48 68.16H52.416C51.712 68.16 51.136 67.936 50.688 67.488C50.304 67.04 50.112 66.496 50.112 65.856V24.288L36.672 49.92C36.352 50.496 35.936 51.008 35.424 51.456C34.912 51.84 34.24 52.032 33.408 52.032H29.472C28.576 52.032 27.872 51.84 27.36 51.456C26.912 51.008 26.528 50.496 26.208 49.92L12.768 24.288V65.856C12.768 66.496 12.544 67.04 12.096 67.488C11.648 67.936 11.104 68.16 10.464 68.16H2.4Z" fill="#0D0D0D"/>
</mask>
<g mask="url(#mask0_0_1)">
<path d="M85 66.3965L97.4326 70.6299L98.1152 68.623L109.067 68.3896L114.263 83.5078L126.684 79.2402L110.519 32.1943L129.992 -25H139.1V80H152.1V-25H343.5V80H356.5V-25H510.438L480 64.3965L492.433 68.6299L493.115 66.623L504.067 66.3896L509.263 81.5078L521.684 77.2402L505.519 30.1943L524.312 -25H641.537L611.1 64.3965L623.533 68.6299L624.216 66.623L635.167 66.3896L640.362 81.5078L652.783 77.2402L636.618 30.1953L648.476 -4.63184L700.277 75.0439L711.177 67.958L654.488 -19.2334L653.151 -18.3652L655.411 -25H776.037L745.6 64.3965L758.033 68.6299L758.716 66.623L769.667 66.3896L774.862 81.5078L787.283 77.2402L771.118 30.1953L789.911 -25H1016V101H-23V-25H116.118L85 66.3965ZM556.5 89H569.5V42H556.5V89ZM-23 -16.9736L25.6777 76.0615L37.1963 70.0352L-11.4814 -23L-23 -16.9736ZM260 57.1504H307V39.5498H260V57.1504ZM867 12V57.1299H883V12H867ZM384 32.7305H437V11.6299H384V32.7305ZM797 31.9805H823V11.6104H797V31.9805ZM260 29H307V12H260V29ZM556.5 29H569.5V-18H556.5V29ZM184 28.1504H226V15.1504H184V28.1504ZM933 26H959V13H933V26Z" fill="#D9D9D9"/>
</g>
</svg>
